# Blender 5.0.0
# www.blender.org
mtllib Cross.mtl
o Cube
v -0.168263 1.996004 -0.212141
v -0.137516 -0.003996 -0.212141
v -0.168263 1.996004 0.212141
v -0.137516 -0.003996 0.212141
v 0.167015 1.996004 -0.212141
v 0.137516 -0.003996 -0.212141
v 0.167015 1.996004 0.212141
v 0.137516 -0.003996 0.212141
v 0.185067 1.745228 0.718494
v 0.185067 1.405751 0.718494
v 0.168775 1.745228 -0.718494
v 0.168775 1.405751 -0.718494
v -0.179368 1.745228 0.718494
v -0.179368 1.405751 0.718494
v -0.164703 1.745228 -0.718494
v -0.164703 1.405751 -0.718494
v 0.136193 1.673501 0.542934
v 0.136193 1.477477 0.542934
v -0.136193 1.671917 0.542934
v -0.136193 1.477433 0.542934
v 0.135548 1.480627 -0.536432
v -0.135232 1.670352 -0.536432
v 0.135548 1.670352 -0.536432
v -0.135232 1.480627 -0.536432
v -0.137516 1.818190 -0.120910
v 0.137516 1.818190 0.120825
v -0.137516 1.818190 0.117652
v 0.137516 1.818190 -0.120825
v -0.124636 0.229718 -0.117627
v -0.124636 0.229718 0.117295
v 0.124636 0.229718 -0.117620
v 0.124636 0.229718 0.117534
v 0.063514 1.654648 -0.852994
v 0.063514 1.496331 -0.852994
v -0.063514 1.654648 -0.852994
v -0.063514 1.496331 -0.852994
v 0.078922 1.673850 0.881407
v 0.078922 1.477129 0.881407
v -0.078922 1.673850 0.881407
v -0.078922 1.477129 0.881407
v -0.082741 2.124223 -0.127642
v -0.082741 2.124223 0.127642
v 0.082741 2.124223 -0.127642
v 0.082741 2.124223 0.127642
vn -0.0000 0.5503 -0.8350
vn -0.0046 -0.4631 0.8863
vn 0.9865 -0.1637 -0.0000
vn -0.0000 -1.0000 -0.0000
vn -0.9854 -0.1704 -0.0000
vn 0.0001 -0.4567 -0.8896
vn -0.9838 -0.0000 -0.1795
vn -0.7875 -0.0000 0.6163
vn 0.9711 -0.0000 0.2388
vn 0.8512 -0.0000 -0.5248
vn 0.0023 -0.9243 0.3817
vn -0.0001 0.9258 0.3781
vn -0.0001 1.0000 0.0029
vn 0.0029 -1.0000 0.0022
vn 1.0000 -0.0000 0.0009
vn -0.9634 -0.0000 0.2682
vn 0.9872 -0.0000 -0.1598
vn -0.0000 -0.9248 -0.3804
vn -0.0000 0.9248 -0.3804
vn -1.0000 -0.0000 0.0006
vn 0.0002 -0.0020 -1.0000
vn -1.0000 -0.0081 -0.0000
vn 1.0000 -0.0081 -0.0000
vn -0.0065 -0.0011 1.0000
vn -0.0004 0.3756 0.9268
vn 0.9985 0.0550 -0.0000
vn -0.9985 0.0550 -0.0000
vn -0.0000 0.3749 -0.9271
vn -0.0000 -0.0000 1.0000
vn 0.7991 -0.0000 0.6012
vn -0.0000 -0.8294 0.5586
vn -0.0000 0.8294 0.5586
vn -0.0000 -0.0000 -1.0000
vn -0.8379 -0.0000 -0.5459
vn -0.0000 -0.9159 -0.4013
vn -0.0000 0.9159 -0.4013
vn -0.0000 1.0000 -0.0000
vn -0.0000 0.5503 0.8350
vn 0.8357 0.5493 -0.0000
vn -0.8319 0.5549 -0.0000
vt 0.625000 0.500000
vt 0.625000 0.250000
vt 0.602773 0.750000
vt 0.625000 0.750000
vt 0.625000 1.000000
vt 0.602773 1.000000
vt 0.602773 0.000000
vt 0.625000 0.000000
vt 0.602773 0.250000
vt 0.125000 0.500000
vt 0.375000 0.500000
vt 0.375000 0.750000
vt 0.125000 0.750000
vt 0.602773 0.500000
vt 0.375000 0.218326
vt 0.625000 0.218326
vt 0.375000 0.250000
vt 0.375000 0.719457
vt 0.625000 0.719457
vt 0.125000 0.719457
vt 0.875000 0.719457
vt 0.875000 0.750000
vt 0.625000 0.531674
vt 0.875000 0.531674
vt 0.125000 0.531674
vt 0.375000 0.531674
vt 0.375000 0.000000
vt 0.625000 0.030543
vt 0.375000 0.030543
vt 0.875000 0.500000
vt 0.404214 0.250000
vt 0.404214 0.500000
vt 0.404214 0.750000
vt 0.404214 0.000000
vt 0.404214 1.000000
vt 0.375000 1.000000
s 0
usemtl Material
f 1/1/1 41/1/1 43/2/1 5/2/1
f 27/3/2 26/6/2 7/5/2 3/4/2
f 26/7/3 28/9/3 5/2/3 7/8/3
f 6/10/4 8/13/4 4/12/4 2/11/4
f 25/14/5 27/3/5 3/4/5 1/1/5
f 28/9/6 25/14/6 1/1/6 5/2/6
f 23/15/7 11/17/7 12/2/7 21/16/7
f 11/17/8 33/17/8 34/2/8 12/2/8
f 19/18/9 13/12/9 14/4/9 20/19/9
f 13/12/10 39/12/10 40/4/10 14/4/10
f 17/20/11 9/13/11 13/12/11 19/18/11
f 20/19/12 14/4/12 10/22/12 18/21/12
f 24/23/13 20/19/13 18/21/13 21/24/13
f 23/25/14 17/20/14 19/18/14 22/26/14
f 22/26/15 19/18/15 20/19/15 24/23/15
f 9/27/16 17/29/16 18/28/16 10/8/16
f 15/11/17 22/26/17 24/23/17 16/1/17
f 11/10/18 23/25/18 22/26/18 15/11/18
f 16/1/19 24/23/19 21/24/19 12/30/19
f 17/29/20 23/15/20 21/16/20 18/28/20
f 31/31/21 29/32/21 25/14/21 28/9/21
f 29/32/22 30/33/22 27/3/22 25/14/22
f 32/34/23 31/31/23 28/9/23 26/7/23
f 30/33/24 32/35/24 26/6/24 27/3/24
f 4/12/25 8/36/25 32/35/25 30/33/25
f 8/27/26 6/17/26 31/31/26 32/34/26
f 2/11/27 4/12/27 30/33/27 29/32/27
f 6/17/28 2/11/28 29/32/28 31/31/28
f 33/17/29 35/11/29 36/1/29 34/2/29
f 16/1/30 36/1/30 35/11/30 15/11/30
f 15/11/31 35/11/31 33/10/31 11/10/31
f 12/30/32 34/30/32 36/1/32 16/1/32
f 39/12/33 37/36/33 38/5/33 40/4/33
f 10/8/34 38/8/34 37/27/34 9/27/34
f 9/13/35 37/13/35 39/12/35 13/12/35
f 14/4/36 40/4/36 38/22/36 10/22/36
f 41/1/37 42/4/37 44/22/37 43/30/37
f 7/5/38 44/5/38 42/4/38 3/4/38
f 5/2/39 43/2/39 44/8/39 7/8/39
f 3/4/40 42/4/40 41/1/40 1/1/40
